<svg id="Layer_1" data-name="Layer 1" xmlns="http://www.w3.org/2000/svg" viewBox="0 0 300 300"><title>icon</title><circle cx="150" cy="150" r="150" fill="#00aeef"/><polygon points="115.12 90.21 115.12 210.21 219.04 150.21 115.12 90.21" fill="#fff"/><g opacity="0.55"><g opacity="0.8"><path d="M346.77,357.59c2.56.62,4.47.88,5.76,1.14a29.51,29.51,0,0,0,4.27-1.86,53.75,53.75,0,0,1-9.18,4.16c-16.74,6.41-39.07,8.65-53.06,5.37a108.28,108.28,0,0,0,14-.34l4.63-.4,7.81-.88-1.28.4,9.56-2.86q4.75-.72,9.47-1.7-4.71,1-9.47,1.7l17.52-4.74" transform="translate(-100 -100)" fill="#7674b1"/><path d="M115.63,239.26l-.06.49-.69-2.93c-.46-11.28,1.81-22.82,5.11-33.07.56-1.52,1.09-3.13,1.78-4.58s1.37-3,2.09-4.45,1.56-2.87,2.39-4.29,1.71-2.83,2.63-4.19,1.9-2.65,2.89-4l1.5-2,1.58-1.87q1.59-1.87,3.25-3.74c1.11-1.23,2.28-2.35,3.44-3.53l2.85-2.78,3-2.59L144.89,169l-2.37,3.39-2.33,3.36L138,179.26l-1.06,1.15a81.57,81.57,0,0,0-9.78,13.3c-.71,1.12-1.33,2.35-1.93,3.56s-1.2,2.4-1.77,3.59c-1.1,2.43-2,5-2.94,7.39a92.5,92.5,0,0,0-4.86,31" transform="translate(-100 -100)" fill="#7674b1"/><path d="M140.88,159.89a160.14,160.14,0,0,1,29.17-26.62l.86,1.7c-1.5,1-3,2-4.5,3.13l-4.48,3.53c-3,2.34-6,5-9.12,7.37-1.71,1.33-3.44,2.74-5.21,4l1.42-.69c-1.38,1.23-2.76,2.41-4.11,3.68l-4,3.89" transform="translate(-100 -100)" fill="#474e9b"/><path d="M163.42,143.45c1.48-1.23,3-2.51,4.45-3.7l4.56-3.47,1.49-.39-5.31,3.65c-1.75,1.21-3.47,2.61-5.19,3.91" transform="translate(-100 -100)" fill="#474e9b"/><path d="M137.48,244.75a17,17,0,0,0-.78,2.1l.34-1.33c.11-.44.31-.87.46-1.31l0,.54" transform="translate(-100 -100)" fill="#474e9b"/><path d="M203.47,201.16l-1.94.26c-.66.08-1.31.16-1.94.28.63-.11,1.28-.2,1.94-.28l1.94-.26" transform="translate(-100 -100)" fill="#474e9b"/><polyline points="99.59 101.7 99.11 101.93 99.59 101.7" fill="#474e9b"/><path d="M235.54,126.73c-1.21-.15-2.43-.32-3.65-.44,1.22.13,2.44.3,3.65.44" transform="translate(-100 -100)" fill="#474e9b"/><polyline points="116.42 90.64 115.24 90.67 116.42 90.64" fill="#474e9b"/><polyline points="88.85 248.13 91.57 251.41 94.36 254.66 91.57 251.41 88.85 248.13" fill="#474e9b"/><path d="M136.7,246.85l-.82,2.15c-.13.36-.28.73-.39,1.1l-.28,1.11.28-1.11c.11-.37.26-.74.39-1.1l.82-2.15" transform="translate(-100 -100)" fill="#474e9b"/><path d="M225.5,123.92c-1.66.11-3.33.17-5,.36,1.41-.2,2.83-.3,4.25-.43l.74.07" transform="translate(-100 -100)" fill="#474e9b"/><polyline points="141.91 27.01 135.54 26.73 139.75 26.72 141.91 27.01" fill="#474e9b"/><path d="M196.31,130.32c2.34-1.24,4.69-2.52,7.08-3.64l1.44-.22-1.44.22,1.44-.22.07.2c-2.9,1.05-5.75,2.4-8.59,3.66" transform="translate(-100 -100)" fill="#474e9b"/><path d="M235,124.4c-3.13-.24-6.28-.36-9.45-.47-1.66.11-3.33.17-5,.36,1.41-.2,2.83-.3,4.25-.43a108.93,108.93,0,0,0-30.31,3.72l-1,1.52c4.59-1.53,9.21-3,13.87-4.06-1.33.53-2.65,1.1-4,1.65l1.44-.22,2.81-.62-2.74.83q3.59-.55,7.18-1c2.4-.25,4.79-.46,7.18-.66l-5.94-.09c2.45-.09,4.88-.18,7.31-.23l-1.37.31c2.22,0,4.43.17,6.63.32,3-.36,6-.7,9.06-.92m-14.32.29c.46-.1.92-.22,1.37-.31-.46.09-.92.2-1.37.31" transform="translate(-100 -100)" fill="#474e9b"/><path d="M224.76,123.85c-1.42.13-2.83.23-4.25.43,1.41-.2,2.83-.3,4.25-.43" transform="translate(-100 -100)" fill="#2e3c91"/><polyline points="104.83 26.45 103.39 26.67 104.83 26.45" fill="#2e3c91"/><path d="M252.13,126.31l-3.45,0-4.86-.08c-4.94-.28-9.93-.57-15-.6l-3-.28c3-.36,6-.7,9.06-.92,2.9.26,5.78.51,8.64.84l8.53,1.07" transform="translate(-100 -100)" fill="#474e9b"/><polyline points="107.64 25.83 104.9 26.66 104.83 26.45 107.64 25.83" fill="#474e9b"/><polyline points="107.64 25.83 104.9 26.66 107.64 25.83" fill="#2e3c91"/><path d="M253.51,126.4c-.89,0-1.78,0-2.68.09l-2.16-.22,3.45,0c.46,0,.93.06,1.39.09" transform="translate(-100 -100)" fill="#474e9b"/><polyline points="151.49 26.56 150.84 26.49 151.49 26.56" fill="#474e9b"/><path d="M249.65,126.55c-2.57.15-5.16.24-7.74.46,1.35-.19,2.7-.32,4.06-.46h3.68" transform="translate(-100 -100)" fill="#474e9b"/><polyline points="104.83 26.45 103.39 26.67 104.83 26.45" fill="#2e3c91"/><polyline points="151.49 26.56 149.65 26.55 151.49 26.56" fill="#474e9b"/><polyline points="150.84 26.49 149.65 26.55 145.97 26.55 143.81 26.19 148.68 26.27 143.81 26.19 148.68 26.27 150.84 26.49" fill="#474e9b"/><polyline points="151.49 26.56 149.65 26.55 150.84 26.49 151.49 26.56" fill="#2e3c91"/><polyline points="149.65 26.55 145.97 26.55 149.65 26.55" fill="#2e3c91"/><polyline points="148.68 26.27 143.81 26.19 148.68 26.27" fill="#2e3c91"/><path d="M246,126.55c-1.35.14-2.71.27-4.06.46l-2.16-.29c2.08-.11,4.15-.18,6.22-.17" transform="translate(-100 -100)" fill="#474e9b"/><polyline points="141.91 27.01 139.75 26.72 141.91 27.01" fill="#2e3c91"/><path d="M246,126.55c-1.35.14-2.71.27-4.06.46,1.35-.19,2.7-.32,4.06-.46" transform="translate(-100 -100)" fill="#2e3c91"/><path d="M246,126.55c-2.08,0-4.14.06-6.22.17l-3.68-.68c2.36.07,4.72.12,7.06.22l.68-.08,2.16.36" transform="translate(-100 -100)" fill="#474e9b"/><path d="M246,126.55c-2.08,0-4.14.06-6.22.17,2.08-.11,4.15-.18,6.22-.17" transform="translate(-100 -100)" fill="#2e3c91"/><path d="M222,124.38c-.46.09-.92.2-1.37.31.46-.1.92-.22,1.37-.31" transform="translate(-100 -100)" fill="#2e3c91"/><path d="M220.64,124.68l-1.37.31-5.94-.09c2.45-.09,4.88-.18,7.31-.23" transform="translate(-100 -100)" fill="#474e9b"/><polyline points="120.64 24.68 119.27 24.99 120.64 24.68" fill="#2e3c91"/><polyline points="119.27 24.99 113.33 24.91 119.27 24.99" fill="#2e3c91"/><path d="M228.85,125.6c-1.42,0-2.84.12-4.27.18l1.31-.46,3,.28" transform="translate(-100 -100)" fill="#474e9b"/><path d="M243.81,126.19l-.68.08c-4.71-.28-9.48-.62-14.28-.67,5,0,10,.31,15,.6" transform="translate(-100 -100)" fill="#474e9b"/><polyline points="143.81 26.19 143.13 26.27 143.81 26.19 143.13 26.27 143.81 26.19" fill="#2e3c91"/><polyline points="143.81 26.19 143.13 26.27 143.81 26.19" fill="#2b3990"/><path d="M206.3,179.94c-3,.51-6,1.08-9,1.68,1.65-.43,3.33-.81,5-1.21l2.48-.59c.83-.19,1.67-.35,2.5-.53l-1,.65" transform="translate(-100 -100)" fill="#474e9b"/><path d="M202.91,182.37l-4.48.13-4.47.29c1.83-.32,3.6-.71,5.45-1l5.45-.8-1.95,1.34" transform="translate(-100 -100)" fill="#474e9b"/><path d="M200,190.9c-1.79.79-3.6,1.51-5.31,2.28s-3.39,1.5-5.08,2.15a76.51,76.51,0,0,1-9.59,3.42c1.59-.8,3.14-1.62,4.8-2.32s3.22-1.5,4.88-2.17l-.51.25,5.37-1.87c1.79-.61,3.63-1.15,5.43-1.72" transform="translate(-100 -100)" fill="#474e9b"/><path d="M200,190.9c-1.79.58-3.64,1.11-5.43,1.72l-5.37,1.87.51-.25,5.12-1.75c1.72-.55,3.46-1.07,5.18-1.6" transform="translate(-100 -100)" fill="#474e9b"/><path d="M200,190.9c-1.79.58-3.64,1.11-5.43,1.72l-5.37,1.87,5.37-1.87c1.79-.61,3.63-1.15,5.43-1.72" transform="translate(-100 -100)" fill="#2e3c91"/><path d="M200.87,183.51c-1,.07-2.09.14-3.12.26,1.69-.53,3.45-.94,5.16-1.4l-2,1.14" transform="translate(-100 -100)" fill="#474e9b"/><polyline points="122.82 73.63 119.34 74.44 122.82 73.63" fill="#474e9b"/><path d="M343.83,146.11c1-.07,2.08-.12,3.12-.17,1.46-.11,2.92-.17,4.38-.2-6.85-.24-13.68-.83-21.78-1.05L332,145c-4.36-.06-8.09-.21-11.68-.4l-5.33-.35c-1.78-.1-3.58-.15-5.45-.19,2.67.27,5.52.44,8.46.67s6,.31,8.94.49c6,.32,11.88.66,16.85.88" transform="translate(-100 -100)" fill="#8785bb"/><path d="M296.57,145.95c-.83,0-1.67,0-2.5.06.83,0,1.66,0,2.5-.06" transform="translate(-100 -100)" fill="#474e9b"/><polyline points="229.55 44.7 225.81 44.61 229.55 44.7" fill="#474e9b"/><polyline points="200.32 46.08 196.57 45.95 200.32 46.08" fill="#474e9b"/><path d="M219.78,168.59c-1.19.27-2.38.53-3.56.86l-3.86.11c2.44-.46,4.83-1,7.27-1.37l.14.4" transform="translate(-100 -100)" fill="#474e9b"/><path d="M219.92,169c-1.24.13-2.48.27-3.7.45,1.17-.32,2.37-.59,3.56-.86l.14.4" transform="translate(-100 -100)" fill="#474e9b"/><polyline points="121.98 71.2 118.87 71.41 111.3 71.81 115.79 70.88 118.03 70.41 120.28 70 121.98 71.2" fill="#474e9b"/><polyline points="122.05 71.41 118.87 71.41 121.98 71.2 122.05 71.41" fill="#474e9b"/><polyline points="122.82 71.81 118.49 72.12 114.17 72.55 118.87 71.41 122.05 71.41 122.82 71.81" fill="#474e9b"/><path d="M219.64,168.18c-2.45.37-4.84.91-7.27,1.37l3.86-.11c-6.48,1.74-13.81,4.61-20.33,6.51a70.86,70.86,0,0,1,9.63-4.87c1.43-.59,2.85-1.2,4.3-1.73l4.38-1.53c2.91-1.06,5.9-1.88,8.83-2.88l-3.39,3.24" transform="translate(-100 -100)" fill="#8785bb"/><path d="M219.64,168.18c-2.45.37-4.84.91-7.27,1.37,2.44-.46,4.83-1,7.27-1.37" transform="translate(-100 -100)" fill="#394395"/><path d="M225.79,163.55c-4.55.88-9.36,2-13.9,3.1-1.14.26-2.27.5-3.38.71s-2.17.47-3.23.66a45.16,45.16,0,0,1-6,.68c.61-.32,1.23-.59,1.84-.85A71.48,71.48,0,0,1,218,163.2a150.86,150.86,0,0,0,17.11-3.62l1-.29a100.39,100.39,0,0,0-11.41.74c-2.07.18-4.1.5-6.06.69s-3.82.34-5.45.47a216.67,216.67,0,0,1,29-3c-2.77.78-5.49,1.71-8.23,2.55s-5.42,1.87-8.13,2.79" transform="translate(-100 -100)" fill="#474e9b"/><path d="M209.71,162.74c-1.15.08-2.31.14-3.46.24l-3.45.35c-2.3.25-4.64.46-6.94.83,1.85-.59,3.73-1.06,5.6-1.55,2.77,0,5.5,0,8.25.12" transform="translate(-100 -100)" fill="#474e9b"/><polyline points="78.62 70.15 76.83 70.97 76.17 71.13 78.62 70.15" fill="#474e9b"/><path d="M189.81,166.37l-3.14.94-4.05,1.33-4,1.51-1.78.82c2.16-.83,4.3-1.68,6.46-2.45l6.52-2.14m-3.14.94-4.05,1.33-4,1.51,4-1.51,4.05-1.33" transform="translate(-100 -100)" fill="#474e9b"/><path d="M201.47,162.62c-1.87.49-3.75,1-5.6,1.55-3.07,1-6.17,2-9.19,3.14l-4.05,1.33-4,1.51-2.45,1,.66-.16-1.55.42-1.53.48-3.07,1c-1,.34-2.06.67-3.08,1l-3,1.18c1-.68,2-1.39,3.06-2l3.13-1.91,3.13-1.9,3.19-1.76,12-2.76a122,122,0,0,1,12.39-2.07" transform="translate(-100 -100)" fill="#474e9b"/><path d="M201.47,162.62c-1.87.49-3.75,1-5.6,1.55,1.85-.59,3.73-1.06,5.6-1.55" transform="translate(-100 -100)" fill="#2e3c91"/><polyline points="78.62 70.15 76.17 71.13 78.62 70.15" fill="#2e3c91"/><polyline points="86.67 67.31 82.62 68.64 78.62 70.15 82.62 68.64 86.67 67.31" fill="#2e3c91"/><polyline points="86.67 67.31 82.62 68.64 78.62 70.15 82.62 68.64 86.67 67.31" fill="#2e3c91"/><path d="M172.95,168.28c-3.22,1.8-6.37,3.4-9.27,5-1.46.8-2.89,1.53-4.27,2.22s-2.69,1.39-4,2l3.1-2.78c1-.91,2.12-1.75,3.18-2.64l3.22-2.61,3.3-2.46-1,2.19c1.93-.34,3.86-.65,5.77-.94" transform="translate(-100 -100)" fill="#474e9b"/><path d="M152.94,290.62c1,1.46,2.09,2.82,3.17,4.22l-1.29-1.2-1-1.5a17.51,17.51,0,0,1-.91-1.53" transform="translate(-100 -100)" fill="#474e9b"/><path d="M304.59,338c5.75,3.56,11.09,6.74,16,9.31a124.33,124.33,0,0,0,13.5,6.34q-4.66-.18-9.31-.47l-9.28-.7c-10-1.13-19.86-3.25-27-6.15-.89-.35-1.74-.7-2.54-1.06s-1.55-.76-2.25-1.15a24.22,24.22,0,0,1-3.56-2.32c-1.92-1.53-2.87-3.05-2.61-4.46a3.65,3.65,0,0,1,1.69-2.24c4.39.67,8.79,1.25,13.07,1.64s8.41.78,12.25,1.27" transform="translate(-100 -100)" fill="#3e4697"/><path d="M236.07,324.14c.68.41,1.39.77,2.09,1.15-4.19-.16-5.26,1.36-12.26,0,1.66-1.26,6-1.22,10.17-1.18" transform="translate(-100 -100)" fill="#474e9b"/><path d="M258.07,327a24,24,0,0,0,3.35,2.42,35.07,35.07,0,0,0,4,1.89,45.06,45.06,0,0,0,4.4,1.56c1.53.43,3.11.84,4.72,1.19s3.16.73,4.77,1a3.65,3.65,0,0,0-1.69,2.24c-.26,1.41.69,2.93,2.61,4.46a24.22,24.22,0,0,0,3.56,2.32c.7.39,1.45.76,2.25,1.15s1.65.71,2.54,1.06c7.11,2.9,17,5,27,6.15-15.3-1.23-30.46-3.32-45.44-6-2.5-.42-5-.94-7.47-1.44l-3.73-.73c-1.24-.25-2.47-.55-3.71-.82-14.33-3.2-28.57-6.68-42.63-11.09l1.26,1.88,2.48,1,2.52.88,5.05,1.73c3.32,1,6.61,2,9.92,2.93l3.1.83c3.07.87,6.15,1.59,9.17,2.36s6,1.48,8.91,2.24,5.76,1.45,8.52,2.23,5.45,1.54,8,2.37A151.08,151.08,0,0,1,246.1,347a153.53,153.53,0,0,1-16.49-4.9c-16.12-5.81-30.63-13.79-42.23-21-4.13-2.62-10.66-6-16.71-10.09l4.39,2.76c1.47.9,3,1.71,4.51,2.55l1.48-.08c-1.9-1.34-3.88-2.57-5.74-3.95s-3.77-2.69-5.54-4.16c1,.71,2,1.34,3,2a121.23,121.23,0,0,0,11.6,6.42c1.83.85,3.64,1.72,5.47,2.54l5.57,2.34c2.3,1,4.68,1.75,7,2.55h0c7.5,2.34,15.51,3.7,24.06,5.11-1.59-.56-3.19-1.08-4.8-1.6l-2.42-.75-2.39-.8c-1.47-.84-2.1-1.43-2.1-1.88,0-1,3.07-1.21,7.12-1.23,2,0,4.31,0,6.56.21s4.54.29,6.54.57l1,.57c-4.21,0-8.51-.07-10.17,1.18,7,1.33,8.06-.2,12.26,0l1.71,2.53q1.89.88,3.77,1.82l3.81,1.8c-2.36.92,0,2,2.67,3.21s5.85,2.33,5,3.43c2.29.83,4.58,1.69,6.9,2.43s4.64,1.6,7,2.31c2.73-.37,5.44-.74,8.12-1-10.37-4.68-20.63-10.37-19.06-14.77" transform="translate(-100 -100)" fill="#6364a8"/><path d="M277.58,337.29c-.26,1.41.69,2.93,2.61,4.46a24.22,24.22,0,0,0,3.56,2.32c.7.39,1.45.76,2.25,1.15s1.65.71,2.54,1.06c7.11,2.9,17,5,27,6.15-10-1.13-19.86-3.25-27-6.15-.89-.35-1.74-.7-2.54-1.06s-1.55-.76-2.25-1.15a24.22,24.22,0,0,1-3.56-2.32c-1.92-1.53-2.87-3.05-2.61-4.46" transform="translate(-100 -100)" fill="#2f3c92"/><path d="M238.16,325.28c-4.19-.16-5.26,1.36-12.26,0,7,1.33,8.06-.2,12.26,0" transform="translate(-100 -100)" fill="#323f93"/><path d="M163.38,302.67c1,.93,2,1.92,3.13,2.79l3.27,2.65c1,.71,2,1.34,3,2a121.23,121.23,0,0,0,11.6,6.42l.65.08c-1.73-.82-3.39-1.75-5-2.68s-3.35-1.84-4.94-2.87c1.81,1.07,3.73,2,5.63,2.89,1,.46,1.9.92,2.86,1.35l2.93,1.22c-1-.6-2.18-1.16-3.36-1.78s-2.39-1.28-3.66-1.93c-2.57-1.26-5.12-2.81-7.71-4.33a86,86,0,0,1-8.37-5.77m9.4,7.42a121.23,121.23,0,0,0,11.6,6.42,121.23,121.23,0,0,1-11.6-6.42" transform="translate(-100 -100)" fill="#474e9b"/><path d="M172.78,310.09a121.23,121.23,0,0,0,11.6,6.42,121.23,121.23,0,0,1-11.6-6.42" transform="translate(-100 -100)" fill="#2e3c91"/><path d="M237.89,324.16l.27,1.13c-.7-.38-1.4-.74-2.09-1.15.6,0,1.2,0,1.81,0" transform="translate(-100 -100)" fill="#474e9b"/><polyline points="188.95 264.06 189.49 265.15 188.95 264.06" fill="#474e9b"/><path d="M236.76,306.63c3.24,1.38,4.87,3.06,5.6,4.56a5.09,5.09,0,0,1-.19,4.47c-1.31,2.89-4.32,5.57-4.28,8.51-.61,0-1.21,0-1.81,0l-1-.57c-2-.28-4.27-.46-6.54-.57s-4.52-.23-6.56-.21c-4,0-7.09.25-7.12,1.23,0,.45.63,1,2.1,1.88l2.39.8,2.42.75c1.61.52,3.21,1,4.8,1.6-8.55-1.41-16.55-2.77-24.06-5.11-2.37-.8-4.75-1.6-7-2.55l-5.57-2.34c-1.84-.81-3.64-1.69-5.47-2.54l.65.08c1.65.75,3.28,1.52,4.95,2.24l5,2.05c-5.24-2.93-13.12-6-20-9.84,1.81,1.07,3.73,2,5.63,2.89,1,.46,1.9.92,2.86,1.35l2.93,1.22c-1-.6-2.18-1.16-3.36-1.78s-2.39-1.28-3.66-1.93c-2.57-1.26-5.12-2.81-7.71-4.33l1.78.59c-1.86-1.51-3.56-3.19-5.31-4.78a98.88,98.88,0,0,0,11.45,7.38c1.61.42,3.22.81,4.84,1.15-.92-.76-1.89-1.56-3-2.38s-2.29-1.67-3.56-2.64-2.71-2-4.28-3.08l-5.05-3.8c1.21.91,2.42,1.75,3.6,2.59.58.43,1.17.83,1.76,1.23l1.82,1.14c1.23.73,2.42,1.5,3.66,2.22s2.57,1.37,3.89,2.06,2.69,1.38,4.18,2,3,1.29,4.59,1.94l5.19,1.79c1.8.63,3.8,1.11,5.87,1.67l1.63-.78,1.59.7,1.62.66a10.18,10.18,0,0,0-1.44-1c-.54-.35-1.13-.68-1.77-1-1.28-.66-2.72-1.27-4.15-1.86a41.28,41.28,0,0,1-7-3.51c3.33,1.08,6.52,2.33,9.83,3.39,0-.65-1.25-1.37-2.67-2a28.81,28.81,0,0,1-3.62-2,26,26,0,0,1,8.12,4.36c.54.39,1.09.77,1.69,1.15a17.43,17.43,0,0,0,2,1,22.91,22.91,0,0,0,5.89,1.67l.46.06.71.11c2.26.33,4.23.57,6,.69a34.65,34.65,0,0,0,4.55-.06c2.56-.22,4.25-.88,5.21-1.84,1.92-1.89.9-4.81-2-7.24,1.05.32,2.07.73,3.11,1.08,6.49-.42,1.6-3.19,3.75-4.51" transform="translate(-100 -100)" fill="#7674b1" opacity="0.8"/><path d="M214.82,324c0,.45.63,1,2.1,1.88l2.39.8,2.42.75c1.61.52,3.21,1,4.8,1.6-1.59-.56-3.19-1.08-4.8-1.6l-2.42-.75-2.39-.8c-1.47-.84-2.1-1.43-2.1-1.88" transform="translate(-100 -100)" fill="#414998"/><path d="M226.53,329c-8.55-1.41-16.55-2.77-24.06-5.11,7.5,2.34,15.51,3.7,24.06,5.11" transform="translate(-100 -100)" fill="#414998"/><path d="M175.05,311c1.81,1.07,3.73,2,5.63,2.89,1,.46,1.9.92,2.86,1.35l2.93,1.22-2.93-1.22c-1-.43-1.91-.89-2.86-1.35-1.9-.92-3.82-1.82-5.63-2.89" transform="translate(-100 -100)" fill="#364194"/><polyline points="85.04 216.59 84.39 216.51 85.04 216.59" fill="#364194"/><path d="M155.1,298.37c-.62-.52-1.17-1.11-1.76-1.66l-2.34-2,2.41,2.74L151,294.75l-.78-.12c1.8,2.22,3.54,4.51,5.54,6.58L154,299.47c-.58-.58-1.09-1.22-1.64-1.83l1.15,1.45c.39.48.82.92,1.22,1.39l2.48,2.77L154,299.93c-1.07-1.11-2-2.32-3.05-3.47l-.22.21,1.95,2.41c5.05,5.46,11.4,10.48,16.76,14.73-1.36-.83-2.64-1.8-3.93-2.74s-2.61-1.87-3.82-2.93l-3.91-3.31c-1.27-1.15-2.5-2.37-3.76-3.56s-2.43-2.5-3.64-3.78l-1.81-1.94-1.7-2.07-1.69-1.83,2.18,2.81c.37.47.73,1,1.12,1.41l1.2,1.35,2.4,2.71c.79.9,1.67,1.71,2.48,2.56L157,305l2.37,2.26c.76.74,1.49,1.46,2.17,2.16s1.38,1.31,2,1.93l-1.61-1.24c-1.25-1-2.41-2.09-3.55-3.09l-1.67-1.5-1.55-1.55-3-3-2.73-3.15L148,296.2c-.44-.54-.85-1.1-1.28-1.65l-2.61-3.37c-1.62-2.41-3.43-4.82-5.09-7.65l-.56-.88,1.15,2.24a26.58,26.58,0,0,0,1.36,2.42l1.6,2.49c.56.84,1.08,1.73,1.71,2.53,1.24,1.62,2.42,3.32,3.64,4.81s2.4,2.89,3.4,4.13a81.78,81.78,0,0,1-15.67-24.19,12,12,0,0,1-.55-1.12,57.8,57.8,0,0,1-4.56-17.14l-.18-2.12a16.13,16.13,0,0,1-.11-2.1l.06-4.17c.07-1.38.29-2.75.43-4.11.1-.68.12-1.36.28-2l.43-2a46.29,46.29,0,0,0-1.48,6.9c0,.29-.11.59-.14.88l-.06.88-.11,1.78-.1,1.79,0,.9,0,.89,0-.89,0-.9.1-1.79.11-1.78.06-.88c0-.29.09-.59.14-.88a46.29,46.29,0,0,1,1.48-6.9c.26-1.07.44-2.14.77-3.17l1-3.07c.17-.51.33-1,.52-1.51l.65-1.46,1.29-2.89c.45-.95,1-1.85,1.51-2.76s1-1.83,1.57-2.69l1.75-2.56.87-1.27c.3-.42.64-.81,1-1.21a80.56,80.56,0,0,1,17.93-16.59c-1,.49-2,1-3,1.51l-2.89,1.68c-1,.58-2,1.12-2.89,1.76L148.77,210a33.72,33.72,0,0,1,3.63-5.44c.7-.87,1.41-1.73,2.14-2.59s1.57-1.62,2.35-2.41,1.58-1.58,2.39-2.35l2.47-2.18,2.37-2.15c.8-.67,1.58-1.34,2.32-2-2.83,1.6-5.42,3.35-8.05,5-1.28.86-2.51,1.76-3.76,2.64l-1.87,1.32L151,201.22a62.13,62.13,0,0,0-12.77,13.25A62.13,62.13,0,0,1,151,201.22l1.77-1.42,1.87-1.32c1.25-.87,2.48-1.78,3.76-2.64,2.63-1.64,5.22-3.39,8.05-5l1.84-1.62a50.53,50.53,0,0,0-7.83,3.56c-1.3.74-2.64,1.47-3.93,2.3s-2.55,1.73-3.82,2.62A110.56,110.56,0,0,0,139,209.56a37.8,37.8,0,0,1,3.79-4.23l2-1.9c.67-.63,1.33-1.26,2.07-1.84,1.44-1.18,2.88-2.4,4.38-3.68s3.14-2.54,4.78-4l-2.34,1.2-2.9,2.52,2.9-2.52c.79-.67,1.54-1.36,2.34-2s1.6-1.17,2.38-1.73a48.37,48.37,0,0,1,4.73-3c1.59-.9,3.14-1.8,4.72-2.58l4.77-2.21c4.77-6.28,11.2-13.28,19.19-17.46l4-1.93c-3.07,1-6.17,2-9.19,3.14l3.14-.94-6.52,2.14c-2.16.77-4.3,1.62-6.46,2.45l-1.55.42-1.53.48-3.07,1c-1,.34-2.06.67-3.08,1l-3,1.18c1-.68,2-1.39,3.06-2l3.13-1.91,3.13-1.9,3.19-1.76c-1.37.26-2.76.52-4.13.83-3.22,1.8-6.37,3.4-9.27,5-1.46.8-2.89,1.53-4.27,2.22s-2.69,1.39-4,2l3.1-2.78c1-.91,2.12-1.75,3.18-2.64l3.22-2.61,3.3-2.46c1.09-1.26,2.17-2.59,3.3-3.82l3.42-3.72L172,157.15c-6.39.71-15.52,5.16-24.67,13.51-.55.47-1.08,1-1.62,1.53l2.34,1.73q-1.93.52-3.87,1.08l-1.7,3.1c-.55,1-1.08,2.14-1.61,3.19-1.6,1.55-3.23,3-4.75,4.7a29.22,29.22,0,0,1-2.82,6c-1.16,2.11-2.6,4.15-4,6.37-2.85,4.45-6,9.22-8.09,14.26a40.9,40.9,0,0,1,2.54-3.85,28,28,0,0,1-.67,4.18,36.43,36.43,0,0,1-1.39,4.25c-.71,2.22-1.59,4.42-2.38,6.59s-1.37,4.4-1.84,6.42q-.57,2.23-1.07,4.47c-.16.75-.36,1.49-.47,2.25l-.3,2.29,0,.85-.09-.36,0,.34c0,1.11,0,2.2,0,3.3l.24,3.3.27,3.26.55,3.22.37,3.39.68,3.34c.23,1.24.36,2.49.67,3.7-.31-1.21-.45-2.47-.67-3.7l-.51-2.22-.25-1.11-.16-1.13a30.67,30.67,0,0,0,.39,3.77,57.84,57.84,0,0,1-1.28-7.54,56.31,56.31,0,0,0,1.13,7.56l.82,3.71c.35,1.21.74,2.41,1.12,3.6l.88,2.48c.31.82.69,1.6,1,2.39l-.76-1.31c.82,2.07,1.55,4.18,2.48,6.18l1.62,3.08c.53,1,1.07,2,1.68,3l1.79,2.91.88,1.46,1,1.38,2.9,3.59c1,1.17,2,2.26,3,3.41-.84-1-1.73-1.89-2.6-2.85l-2.5-3c-.88-1.12-1.89-2.15-2.71-3.35.64,1,1.41,1.93,2.12,2.89l2.14,2.83c.69,1,1.49,1.81,2.23,2.71l2.21,2.7-.7-.34a190.33,190.33,0,0,0,13.05,14.1l.48.48c1.37,1.37,2.81,2.61,4.2,3.93q1.05,1,2.08,2c.69.67,1.42,1.27,2.12,1.92l-1.91-1.66c-.62-.58-1.23-1.17-1.85-1.74-1.24-1.16-2.52-2.24-3.77-3.39l.11.89c4.77,4.49,9.87,9.22,15,14.21,1.21,1.32,2.51,2.48,3.73,3.83l-.89-1.11c1.23,1.21,2.48,2.41,3.71,3.67l3.78,3.62c2.21,2,4.45,3.82,6.69,5.61,1.13.88,2.24,1.81,3.37,2.63l3.41,2.45-3.25-3.86,3.25,3.86c8.19,5.74,16.61,10,24.7,12.09,1,.27,2,.53,3,.77s2,.38,3,.55c2,.34,3.88.57,5.74.74a64.65,64.65,0,0,0,10.59-.14,164.49,164.49,0,0,1-25.8-6.6c-11.23-4.49-21.38-11.87-31-20.26l-3.17-2.79c1.92,1.32,3.82,2.73,5.79,4s3.95,2.49,6,3.69l-.54-.41c1,.49,2,.93,3,1.38l-2.47-1A97.35,97.35,0,0,0,213,354.53c2.12.79,4.23,1.6,6.37,2.24s4.3,1.29,6.47,1.92,4.38,1.14,6.62,1.72l3.38.87,3.45.82-3.41,0q4.17.7,8.35,1.24c2.8.3,5.6.54,8.39.8s5.59.35,8.38.49c1.4.05,2.78.16,4.18.17l4.18.05c4.31-1,8.58-2.16,12.78-3.23-3.39-.4-6.78-.71-10.15-1.26,1.95,0,3.89-.13,5.83-.24.87-.22,4.2-.37,4.56-.73s-.74-.57-4.35-1.1l-3.22-.45-4.32-.66c-1.64-.25-3.5-.49-5.57-.83L258,355.21c-3.57-.48-7.11-1.16-10.67-1.75,12.13,1.22,23,1.09,32-.27-1.31-.39-2.63-.76-3.94-1.17l-3.9-1.29A151.06,151.06,0,0,1,246.1,347a154,154,0,0,1-16.49-4.9c-16.12-5.81-30.63-13.79-42.23-21-4.13-2.62-10.66-6-16.71-10.09-.34-.22-.7-.42-1-.65l2.91,2.23c-1.51-1-3-2.07-4.45-3.21l1.59,1.44,1.65,1.37,3.3,2.77-4.38-3.37c-1.47-1.11-2.83-2.35-4.25-3.51l-1.58-1c2.37,1.93,4.68,4,7.18,5.75l-2.11-1.53c-.69-.52-1.36-1.08-2-1.62-1.34-1.1-2.74-2.14-4-3.29l-2.07-1.34c-2.24-2.1-4.24-4.42-6.27-6.68m-19.46-79.49a26.58,26.58,0,0,1,2.16-2.83c.75-.9,1.5-1.78,2.26-2.65s1.64-1.64,2.46-2.45,1.62-1.65,2.54-2.41l2.72-2.36,1.38-1.22,1.49-1.19c1-.81,2-1.64,3-2.52l3.31-2.62-3.31,2.62c-1,.88-2,1.72-3,2.52L149.16,205l-1.38,1.22L145,208.54c-.91.76-1.69,1.61-2.54,2.41s-1.66,1.61-2.46,2.45-1.51,1.75-2.26,2.65a26.58,26.58,0,0,0-2.16,2.83l-2.16,3.21c-.46.73-.77,1.53-1.16,2.3.39-.77.7-1.57,1.16-2.3l2.16-3.21.13.8a67.42,67.42,0,0,0-4.53,9.12,67.42,67.42,0,0,1,4.53-9.12l-.13-.8m-3.75,51c-.35-1-.66-2-.94-3a23.72,23.72,0,0,1-.58-2.88c-.15-.94-.28-1.85-.4-2.74s-.09-1.79-.12-2.67l-.05-2.63c0-.87.1-1.76.13-2.65s.1-1.8.13-2.73.19-1.88.24-2.87c-.05,1-.23,1.94-.24,2.87s-.07,1.84-.13,2.73-.17,1.78-.13,2.65l.05,2.63c0,.88,0,1.78.12,2.67s.25,1.8.4,2.74a23.72,23.72,0,0,0,.58,2.88c.28,1,.59,2,.94,3m2.91,7,.3.55,1.42,2.8.71,1.4c.26.46.54.9.81,1.35-.27-.45-.55-.89-.81-1.35l-.71-1.4-1.42-2.8-.3-.55c-.72-1.74-1.31-3.41-1.89-5s-.86-3.24-1.27-4.82a70.53,70.53,0,0,1-1.35-10.13A70.53,70.53,0,0,0,131.64,267c.41,1.58.76,3.2,1.27,4.82s1.17,3.27,1.89,5m-1.46-51.29c-.32,1.24-.75,2.42-1,3.67.24-1.25.67-2.44,1-3.67m97.47,125.38c2.74.52,5.47,1.06,8.22,1.46s5.51.76,8.27,1.09c-2.75-.33-5.51-.7-8.27-1.09s-5.48-.94-8.22-1.46m0,0c2.74.52,5.47,1.06,8.22,1.46s5.51.76,8.27,1.09c-2.75-.33-5.51-.7-8.27-1.09s-5.48-.94-8.22-1.46m0,0c-.83-.2-1.67-.38-2.49-.61l-2.53-.52-2.48-.7-2.39-.53-.24-.06-2.33-.78-2.49-.69-2.43-.87c-.83-.24-1.65-.49-2.47-.78l-2.44-.85-1.8-.73-2.42-.9-2.39-1-2.37-1-1.81-.73q-1.19-.52-2.34-1.12l-1.81-.71a88.7,88.7,0,0,0,24.93,10.14l.88.24.68.15c1,.24,2,.43,3,.65l.72.16,2.52.53,1.43.23c1,.21,2,.36,3,.52M272,360.41q-1.65-.24-3.36-.45l-2.36-.25c-.85-.1-1.7-.22-2.54-.36l-2.56-.22-3.21-.34-1.56,0-4.22-.29h-.06l-2.6-.15,2.6.15-2.6-.15,2.6.15h0c-.88-.05-1.74-.12-2.62-.15,1.06,0,2.21.13,3.37.25l1.81.22c1.06.16,2.13.24,3.2.36l1,.09,3,.36,1.74.27c.61,0,1.22.12,1.83.14,2.26.19,4.46.35,6.51.4M148.08,173.92l.36.45c.83-.53,1.69-1,2.53-1.46-1,.33-1.94.63-2.89,1" transform="translate(-100 -100)" fill="#7674b1" opacity="0.8"/><path d="M230.81,350.91c-3.31-.63-6.59-1.53-9.88-2.37l2.39.53,2.48.7,2.53.52c.82.23,1.66.41,2.49.61" transform="translate(-100 -100)" fill="#7674b1"/><path d="M227.77,350.39l-1.43-.23-2.52-.53-.72-.16,4.67.93" transform="translate(-100 -100)" fill="#7674b1"/><path d="M220.68,348.48a185.79,185.79,0,0,1-27.1-10.2l1.81.71q1.16.6,2.34,1.12l1.81.73,2.37,1,2.39,1,2.42.9,1.8.73,2.44.85c.81.29,1.64.55,2.47.78l2.43.87,2.49.69,2.33.78" transform="translate(-100 -100)" fill="#7674b1"/><polyline points="120.07 248.82 119.39 248.67 118.51 248.43 120.07 248.82" fill="#7674b1"/><path d="M115.65,240.11l-.09-.36.06-.49,0,.85" transform="translate(-100 -100)" fill="#4a4f9c"/><polyline points="85.59 244.26 88.85 248.13 85.59 244.26" fill="#364194"/><polyline points="89.81 66.37 86.67 67.31 89.81 66.37" fill="#364194"/><path d="M177.08,167.45l-3.19,1.76-3.13,1.9L167.62,173c-1,.66-2,1.37-3.06,2,1-.68,2-1.39,3.06-2l3.13-1.91,3.13-1.9,3.19-1.76" transform="translate(-100 -100)" fill="#364194"/><path d="M155.42,177.51l3.1-2.78c1-.91,2.12-1.75,3.18-2.64l3.22-2.61,3.3-2.46-3.3,2.46-3.22,2.61c-1.06.88-2.14,1.73-3.18,2.64l-3.1,2.78" transform="translate(-100 -100)" fill="#364194"/><path d="M230.81,350.91c-.83-.2-1.67-.38-2.49-.61l-2.53-.52-2.48-.7-2.39-.53,2.39.53,2.48.7,2.53.52c.82.23,1.66.41,2.49.61" transform="translate(-100 -100)" fill="#374194"/><polyline points="127.77 250.39 126.35 250.16 123.83 249.63 123.11 249.47 123.83 249.63 126.35 250.16 127.77 250.39" fill="#374194"/><path d="M220.68,348.48l-2.33-.78-2.49-.69-2.43-.87c-.83-.24-1.65-.49-2.47-.78l-2.44-.85-1.8-.73-2.42-.9-2.39-1-2.37-1-1.81-.73q-1.19-.52-2.34-1.12l-1.81-.71,1.81.71q1.16.6,2.34,1.12l1.81.73,2.37,1,2.39,1,2.42.9,1.8.73,2.44.85c.81.29,1.64.55,2.47.78l2.43.87,2.49.69,2.33.78" transform="translate(-100 -100)" fill="#374194"/><polyline points="120.07 248.82 119.39 248.67 118.51 248.43 119.39 248.67 120.07 248.82" fill="#374194"/><path d="M247.3,353.46c-2.75-.33-5.51-.7-8.27-1.09s-5.48-.94-8.22-1.46c2.74.52,5.47,1.06,8.22,1.46s5.51.76,8.27,1.09" transform="translate(-100 -100)" fill="#374194"/><path d="M247.3,353.46c-2.75-.33-5.51-.7-8.27-1.09s-5.48-.94-8.22-1.46c2.74.52,5.47,1.06,8.22,1.46s5.51.76,8.27,1.09" transform="translate(-100 -100)" fill="#374194"/><path d="M170.67,311c6.06,4.11,12.58,7.47,16.71,10.09,11.6,7.2,26.11,15.18,42.23,21-16.12-5.81-30.63-13.79-42.23-21-4.13-2.62-10.66-6-16.71-10.09" transform="translate(-100 -100)" fill="#414998"/><path d="M271.5,350.73A151.06,151.06,0,0,1,246.1,347a151.08,151.08,0,0,0,25.39,3.77" transform="translate(-100 -100)" fill="#414998"/><path d="M263.71,359.35c.85.14,1.69.26,2.54.36-3.2-.37-6.49-.75-9.86-1l1.56,0,3.21.34,2.56.22" transform="translate(-100 -100)" fill="#7674b1"/><path d="M265.45,360c-.61,0-1.22-.1-1.83-.14l-1.74-.27c1.2.14,2.39.31,3.58.42" transform="translate(-100 -100)" fill="#7674b1"/><path d="M258.89,359.23l-1-.09c-1.06-.12-2.14-.21-3.2-.36l-1.81-.22,6,.68" transform="translate(-100 -100)" fill="#7674b1"/><path d="M252.17,358.46h0" transform="translate(-100 -100)" fill="#7674b1"/><polyline points="187.03 263.84 185.73 263.95 187.03 263.84" fill="#474e9b"/><path d="M282.12,361.66c15.84,1.87,31.25,2.92,47.13.66l-9.56,2.86,1.28-.4-7.82.88-4.63.4a108.28,108.28,0,0,1-14,.34c-1.7-.36-3.38-.82-5.07-1.25V365l-.56-.94,3.94-.8-5.85.58-1.3.11c-2.72.28-5.43.37-8.17.57s-5.48.31-8.22.37c4.31-1,8.58-2.16,12.78-3.23" transform="translate(-100 -100)" fill="#3e4697"/><path d="M313.15,365.66l7.82-.88-7.81.88-4.63.4,4.63-.4" transform="translate(-100 -100)" fill="#323e93"/><polyline points="220.97 264.79 219.68 265.18 220.97 264.79" fill="#323e93"/><polyline points="188.95 264.06 189.5 264.99 189.49 265.15 188.95 264.06" fill="#2d3b91"/><path d="M282.12,361.66c-4.2,1.07-8.47,2.24-12.78,3.23,4.31-1,8.58-2.16,12.78-3.23" transform="translate(-100 -100)" fill="#323e93"/><path d="M286,351.65c9.2,1.13,20.86,3.07,30.74,3.93-2,.59-4.48,1.08-7.18,1.62s-5.66,1.1-8.73,1.56c-6.15,1-12.76,1.94-18.66,2.91-3.39-.4-6.78-.71-10.15-1.26,1.95,0,3.89-.13,5.83-.24.87-.22,4.2-.37,4.56-.73s-.74-.57-4.35-1.1l-3.22-.45-4.32-.66c-1.64-.25-3.5-.49-5.57-.83L258,355.21c-3.57-.48-7.11-1.16-10.67-1.75,12.13,1.22,23,1.09,32-.27-1.31-.39-2.63-.76-3.94-1.17l-3.9-1.29c1.67.08,3.32.2,5,.26a50.44,50.44,0,0,1,6.85.35l2.62.3" transform="translate(-100 -100)" fill="#3e4697"/><path d="M279.34,353.19c-9,1.36-19.91,1.49-32,.27,12.13,1.22,23,1.09,32-.27" transform="translate(-100 -100)" fill="#323e93"/><path d="M282.37,359.43c-.37.37-3.69.52-4.56.73-1.94.11-3.89.21-5.83.24,1.95,0,3.89-.13,5.83-.24.87-.22,4.2-.37,4.56-.73" transform="translate(-100 -100)" fill="#323e93"/><path d="M255.16,343.4c1.24.26,2.47.57,3.71.82l3.73.73c2.49.5,5,1,7.47,1.44,15,2.72,30.14,4.81,45.44,6,4.63.52,9.28.94,13.93,1.07,1.55.05,3.1.08,4.65.1a69.69,69.69,0,0,0,12.67,4l-17.52,4.74c-15.87,2.26-31.28,1.21-47.13-.66,5.9-1,12.51-1.87,18.66-2.91,3.07-.46,6-1,8.73-1.56s5.14-1,7.18-1.62c-9.87-.85-21.54-2.8-30.74-3.93h0l-2.61-.3a50.44,50.44,0,0,0-6.85-.35c-1.66-.06-3.32-.18-5-.26-2.58-.83-5.27-1.57-8-2.37s-5.62-1.44-8.52-2.23S249,344.7,246,343.89s-6.1-1.5-9.17-2.36l-3.09-.83c-3.32-.89-6.61-1.94-9.92-2.93L218.79,336l-2.52-.88-2.48-1-1.26-1.88c14.05,4.4,28.29,7.89,42.63,11.09" transform="translate(-100 -100)" fill="#51559f"/><path d="M255.16,343.4c-14.33-3.2-28.57-6.68-42.63-11.09,14.05,4.4,28.29,7.89,42.63,11.09" transform="translate(-100 -100)" fill="#364194"/><path d="M270.08,346.39c15,2.72,30.14,4.81,45.44,6-15.3-1.23-30.46-3.32-45.44-6" transform="translate(-100 -100)" fill="#364194"/><path d="M223.84,337.77c3.31,1,6.61,2,9.92,2.93l3.09.83c3.07.87,6.15,1.59,9.17,2.36s6,1.48,8.91,2.24c-2.91-.76-5.91-1.43-8.91-2.24s-6.1-1.49-9.17-2.36l-3.1-.83c-3.31-.89-6.61-1.94-9.92-2.93" transform="translate(-100 -100)" fill="#364194"/><path d="M285.94,351.65h0l-2.62-.3,2.61.3" transform="translate(-100 -100)" fill="#2e3b91"/><path d="M316.69,355.58c-2,.59-4.48,1.08-7.18,1.62s-5.66,1.1-8.73,1.56c-6.15,1-12.76,1.94-18.66,2.91,5.9-1,12.51-1.87,18.66-2.91,3.07-.46,6-1,8.73-1.56s5.14-1,7.18-1.62" transform="translate(-100 -100)" fill="#2e3b91"/><path d="M315.52,352.44l9.28.7q4.65.29,9.31.47c-1.55,0-3.1,0-4.65-.1-4.65-.13-9.3-.56-13.93-1.07" transform="translate(-100 -100)" fill="#474e9b"/><path d="M315.52,352.44l9.28.7q4.65.29,9.31.47-4.66-.18-9.31-.47l-9.28-.7" transform="translate(-100 -100)" fill="#2d3b91"/></g></g><polygon points="132.81 117.45 132.81 182.55 189.19 150 132.81 117.45" fill="#00aeef"/></svg>